<?xml version="1.0" encoding="UTF-8" standalone="no"?>
<svg
   xmlns:dc="http://purl.org/dc/elements/1.1/"
   xmlns:cc="http://creativecommons.org/ns#"
   xmlns:rdf="http://www.w3.org/1999/02/22-rdf-syntax-ns#"
   xmlns:svg="http://www.w3.org/2000/svg"
   xmlns="http://www.w3.org/2000/svg"
   xmlns:sodipodi="http://sodipodi.sourceforge.net/DTD/sodipodi-0.dtd"
   xmlns:inkscape="http://www.inkscape.org/namespaces/inkscape"
   version="1.1"
   width="24"
   height="24"
   viewBox="0 0 24 24"
   id="svg2"
   inkscape:version="0.91 r13725"
   sodipodi:docname="jb_aspects2.svg"
   inkscape:export-filename="/home/juergen/Projekte/Android/Android_Studio/Diaspora-Native-WebApp-1.5.4/app/src/main/Templates/jb_aspects.png"
   inkscape:export-xdpi="172"
   inkscape:export-ydpi="172">
  <metadata
     id="metadata10">
    <rdf:RDF>
      <cc:Work
         rdf:about="">
        <dc:format>image/svg+xml</dc:format>
        <dc:type
           rdf:resource="http://purl.org/dc/dcmitype/StillImage" />
        <dc:title></dc:title>
      </cc:Work>
    </rdf:RDF>
  </metadata>
  <defs
     id="defs8" />
  <sodipodi:namedview
     pagecolor="#ffffff"
     bordercolor="#666666"
     borderopacity="1"
     objecttolerance="10"
     gridtolerance="10"
     guidetolerance="10"
     inkscape:pageopacity="0"
     inkscape:pageshadow="2"
     inkscape:window-width="1366"
     inkscape:window-height="744"
     id="namedview6"
     showgrid="false"
     inkscape:zoom="9.8333333"
     inkscape:cx="0.85257157"
     inkscape:cy="12"
     inkscape:window-x="0"
     inkscape:window-y="24"
     inkscape:window-maximized="1"
     inkscape:current-layer="svg2" />
  <path
     id="path4164"
     d="m 15,11.5 c -1.11,0 -2,0.89 -2,2 a 2,2 0 0 0 2,2 2,2 0 0 0 2,-2 c 0,-1.11 -0.9,-2 -2,-2 m -3,8 A 8,8 0 0 1 3.9999998,11.5 8,8 0 0 1 12,3.5 a 8,8 0 0 1 8,8 8,8 0 0 1 -8,8 m 0,-18 A 10,10 0 0 0 1.9999998,11.5 10,10 0 0 0 12,21.5 10,10 0 0 0 22,11.5 10,10 0 0 0 12,1.5 m 2,7 c 0,-1.11 -0.9,-2 -2,-2 -1.11,0 -2.0000002,0.89 -2.0000002,2 A 2,2 0 0 0 12,10.5 a 2,2 0 0 0 2,-2 m -5.0000002,3 a 2,2 0 0 0 -2,2 2,2 0 0 0 2,2 A 2,2 0 0 0 11,13.5 c 0,-1.11 -0.9,-2 -2.0000002,-2 z"
     inkscape:connector-curvature="0" />
</svg>
